<svg xmlns="http://www.w3.org/2000/svg" viewBox="0 0 130.041 141.335"><g aria-label="X" style="line-height:1.25" fill="#fffcfc" stroke-width="4.707" font-family="sans-serif" font-size="67.167" font-weight="400" letter-spacing="0" word-spacing="0"><path fill="#1ca7e1" d="M37.987 0L1.723 54.978 56.752 67.7a2.646 2.646 27.99 0 1 .632.235l1.482.177c9.553 1.136 20.367.875 29.681-1.608 8.68-2.314 15.93-6.476 20.142-13.035l.876-1.476 18.25-35.116zm62.3 67.627c-3.226 1.701-6.729 3.019-10.377 3.991-5.11 1.362-10.498 2.077-15.876 2.304l19.612 4.895zM0 59.957v66.456l54.164 12.526.418-66.36zM130.041 24.068l-15.482 29.79-.014 60.446 15.496-29.822z"/><path fill="#f7cb20" d="M109.242 61.082c-5.096 5.166-11.917 8.56-19.332 10.536-9.234 2.462-19.384 2.815-28.729 1.981l-.421 66.695c15.997 3.016 33.46-.571 43.7-10.156 2.032-2.05 3.547-3.642 4.766-5.752l.016-63.304z"/><path style="-inkscape-font-specification:'sans-serif Bold'" d="M75.603 60.445l-15.31-2.97-2.608-15.792L37.95 53.14l-14.62-2.837 31.153-17.352-5.07-24.036 15.275 2.963 2.68 14.995 19.008-10.787 14.654 2.843-30.428 16.682z" font-weight="700"/></g></svg>