<svg xmlns="http://www.w3.org/2000/svg" xmlns:xlink="http://www.w3.org/1999/xlink" viewBox="0 0 188.597 137.896"><defs><linearGradient id="u" x1="22.308" x2="35.785" y1="18.992" y2="39.498" gradientTransform="matrix(-1.00672 0 0 -.93322 -2971.329 -374.546)" gradientUnits="userSpaceOnUse" xlink:href="#a"/><linearGradient id="a"><stop offset="0" stop-color="#f0f0ef"/><stop offset=".599" stop-color="#e8e8e8"/><stop offset=".828" stop-color="#fff"/><stop offset="1" stop-color="#d8d8d3"/></linearGradient><linearGradient id="v" x1="26.076" x2="30.811" y1="26.697" y2="42.007" gradientTransform="matrix(.94278 0 0 .94333 2972.838 374.544)" gradientUnits="userSpaceOnUse" xlink:href="#b"/><linearGradient id="b"><stop offset="0" stop-color="#fff"/><stop offset="1" stop-color="#fff" stop-opacity="0"/></linearGradient><linearGradient id="w" x1="35.997" x2="33.665" y1="40.458" y2="37.771" gradientTransform="rotate(179.929 -1486.5 -187.272) scale(.94333)" gradientUnits="userSpaceOnUse" xlink:href="#c"/><linearGradient id="c" x1="35.997" x2="33.665" y1="40.458" y2="37.771" gradientTransform="translate(6.162 4.033)" gradientUnits="userSpaceOnUse"><stop offset="0" stop-color="#7c7c7c"/><stop offset="1" stop-color="#b8b8b8"/></linearGradient><linearGradient id="x" x1="33.396" x2="34.17" y1="36.921" y2="38.07" gradientTransform="matrix(-.94333 0 0 -.94333 -2972.999 -374.19)" gradientUnits="userSpaceOnUse" xlink:href="#d"/><linearGradient id="d" x1="33.396" x2="34.17" y1="36.921" y2="38.07" gradientTransform="translate(6.162 3.658)" gradientUnits="userSpaceOnUse"><stop offset="0" stop-color="#fff"/><stop offset="1" stop-color="#fff" stop-opacity="0"/></linearGradient><linearGradient id="y" x1="1813.324" x2="1833.511" y1="-397.491" y2="-397.491" gradientTransform="matrix(4.21518 0 0 4.20402 -5666.095 1473.993)" gradientUnits="userSpaceOnUse" xlink:href="#e"/><linearGradient id="e" x1="301.8" x2="288.56" y1="267.55" y2="839.03" gradientTransform="translate(0 73.469)" gradientUnits="userSpaceOnUse"><stop offset="0" stop-color="#ffdc10"/><stop offset=".395" stop-color="#f4b908"/><stop offset=".75" stop-color="#eea704"/><stop offset="1" stop-color="#c68000"/></linearGradient><linearGradient id="z" x1="1776.666" x2="1815.079" y1="-450.134" y2="-450.134" gradientTransform="matrix(4.21518 0 0 4.20402 -5666.095 1473.993)" gradientUnits="userSpaceOnUse" xlink:href="#e"/><linearGradient id="A" x1="1761.624" x2="1814.324" y1="-413.855" y2="-413.855" gradientTransform="matrix(4.21518 0 0 4.20402 -5666.095 1473.993)" gradientUnits="userSpaceOnUse" xlink:href="#f"/><linearGradient id="f" x1="181.75" x2="148.84" y1="231.55" y2="781.62" gradientTransform="translate(0 73.469)" gradientUnits="userSpaceOnUse"><stop offset="0" stop-color="#ffdc10"/><stop offset=".362" stop-color="#f4b908"/><stop offset=".75" stop-color="#eea704"/><stop offset="1" stop-color="#da9302"/></linearGradient><linearGradient id="B" x1="1792.553" x2="1814.998" y1="-434.589" y2="-434.589" gradientTransform="matrix(4.21518 0 0 4.20402 -5666.095 1473.993)" gradientUnits="userSpaceOnUse" xlink:href="#e"/><linearGradient id="C" x1="1776.666" x2="1817.287" y1="-450.134" y2="-460.651" gradientTransform="matrix(4.21518 0 0 4.20402 -5260.66 1647.94)" gradientUnits="userSpaceOnUse" xlink:href="#g"/><linearGradient id="g" x1="301.8" x2="288.56" y1="267.55" y2="839.03" gradientTransform="translate(0 73.469)" gradientUnits="userSpaceOnUse"><stop offset="0" stop-color="#07a92b"/><stop offset="1" stop-color="#00aa3d"/></linearGradient><linearGradient id="D" x1="1761.624" x2="1814.324" y1="-413.855" y2="-413.855" gradientTransform="matrix(4.21518 0 0 4.20402 -5260.66 1647.94)" gradientUnits="userSpaceOnUse" xlink:href="#h"/><linearGradient id="h" x1="301.8" x2="288.56" y1="267.55" y2="839.03" gradientTransform="translate(0 73.469)" gradientUnits="userSpaceOnUse"><stop offset="0" stop-color="#07a92b"/><stop offset=".395" stop-color="#1da12c"/><stop offset=".75" stop-color="#7ae230"/><stop offset="1" stop-color="#0d5226"/></linearGradient><linearGradient id="t" x1="1792.553" x2="1825.303" y1="-434.589" y2="-452.67" gradientTransform="matrix(4.21518 0 0 4.20402 -5260.66 1647.94)" gradientUnits="userSpaceOnUse" xlink:href="#i"/><linearGradient id="i" x1="301.8" x2="288.56" y1="267.55" y2="839.03" gradientTransform="translate(0 73.469)" gradientUnits="userSpaceOnUse"><stop offset="0" stop-color="#07a92b"/><stop offset=".395" stop-color="#1da12c"/><stop offset="1" stop-color="#0d5226"/></linearGradient><linearGradient id="j" x1="22.308" x2="35.785" y1="18.992" y2="39.498" gradientTransform="matrix(-1.00672 0 0 -.93322 -2971.329 -374.546)" gradientUnits="userSpaceOnUse" xlink:href="#a"/><linearGradient id="k" x1="26.076" x2="30.811" y1="26.697" y2="42.007" gradientTransform="matrix(.94278 0 0 .94333 2972.838 374.544)" gradientUnits="userSpaceOnUse" xlink:href="#b"/><linearGradient id="l" x1="35.997" x2="33.665" y1="40.458" y2="37.771" gradientTransform="rotate(179.929 -1486.5 -187.272) scale(.94333)" gradientUnits="userSpaceOnUse" xlink:href="#c"/><linearGradient id="m" x1="33.396" x2="34.17" y1="36.921" y2="38.07" gradientTransform="matrix(-.94333 0 0 -.94333 -2972.999 -374.19)" gradientUnits="userSpaceOnUse" xlink:href="#d"/><linearGradient id="n" x1="1813.324" x2="1833.511" y1="-397.491" y2="-397.491" gradientTransform="matrix(4.21518 0 0 4.20402 -5666.095 1473.993)" gradientUnits="userSpaceOnUse" xlink:href="#e"/><linearGradient id="o" x1="1776.666" x2="1815.079" y1="-450.134" y2="-450.134" gradientTransform="matrix(4.21518 0 0 4.20402 -5666.095 1473.993)" gradientUnits="userSpaceOnUse" xlink:href="#e"/><linearGradient id="p" x1="1761.624" x2="1814.324" y1="-413.855" y2="-413.855" gradientTransform="matrix(4.21518 0 0 4.20402 -5666.095 1473.993)" gradientUnits="userSpaceOnUse" xlink:href="#f"/><linearGradient id="q" x1="1792.553" x2="1814.998" y1="-434.589" y2="-434.589" gradientTransform="matrix(4.21518 0 0 4.20402 -5666.095 1473.993)" gradientUnits="userSpaceOnUse" xlink:href="#e"/><linearGradient id="r" x1="1776.666" x2="1817.287" y1="-450.134" y2="-460.651" gradientTransform="matrix(4.21518 0 0 4.20402 -5260.66 1647.94)" gradientUnits="userSpaceOnUse" xlink:href="#g"/><linearGradient id="s" x1="1761.624" x2="1814.324" y1="-413.855" y2="-413.855" gradientTransform="matrix(4.21518 0 0 4.20402 -5260.66 1647.94)" gradientUnits="userSpaceOnUse" xlink:href="#h"/><linearGradient id="E" x1="301.8" x2="288.56" y1="267.55" y2="839.03" gradientTransform="translate(0 73.469)" gradientUnits="userSpaceOnUse" xlink:href="#h"/></defs><g transform="translate(-4.036 -193.995) scale(.5523)"><rect width="338.163" height="90.044" x="9.619" y="407.324" fill="#f4eed7" stroke="#000" stroke-dasharray="8 8" stroke-linecap="square" stroke-width="2" paint-order="markers stroke fill" ry="16.009"/><rect width="338.945" height="45.281" x="8.36" y="352.249" fill="#e6e6e6" stroke="#000" stroke-dasharray="8 8" stroke-linecap="square" stroke-width="2" paint-order="markers stroke fill" ry="8.051"/><path fill="#1ca7e1" d="M29.174 356.695l-9.352 14.178 14.19 3.28a.682.682 0 0 1 .164.062l.382.045c2.464.293 5.252.226 7.654-.415 2.238-.596 4.108-1.67 5.194-3.361l.226-.38 4.706-9.056zm16.066 17.44a12.82 12.82 0 0 1-2.676 1.029c-1.318.351-2.708.535-4.094.594l5.057 1.263zM19.378 372.157v17.138l13.968 3.23.107-17.113zM52.913 362.902l-3.993 7.682-.003 15.588 3.996-7.69z"/><path fill="#f7cb20" d="M47.549 372.447c-1.314 1.332-3.073 2.207-4.985 2.717-2.382.635-4.999.726-7.409.51l-.109 17.2c4.126.778 8.629-.147 11.27-2.619.524-.529.915-.94 1.229-1.483l.004-16.325z"/><text x="-2128.023" y="1141.382" fill="#fffcfc" stroke-width="4.707" font-family="sans-serif" font-size="67.166" font-weight="400" letter-spacing="0" transform="matrix(.27112 .0526 -.13574 .21895 757.049 231.658)" style="line-height:1.25" word-spacing="0"><tspan style="-inkscape-font-specification:'sans-serif Bold'" x="-2128.023" y="1141.382" font-weight="700">X</tspan></text><text style="line-height:1.5;-inkscape-font-specification:'Bahnschrift Bold'" x="120.804" y="379.172" stroke-dasharray="32.279 32.279" stroke-linecap="square" stroke-width="6.838" font-family="Bahnschrift" font-size="12.062" font-weight="700" paint-order="markers stroke fill"><tspan x="120.804" y="379.172">CAD AGNOSTIC LAYER</tspan></text><rect width="75.659" height="44.54" x="182.376" y="413.733" fill="#e9c6af" stroke="#000" stroke-dasharray="7.581 7.581" stroke-linecap="square" stroke-width="1.895" paint-order="markers stroke fill" ry="7.919"/><rect width="75.659" height="44.54" x="99.905" y="413.733" fill="#fea" stroke="#000" stroke-dasharray="7.581 7.581" stroke-linecap="square" stroke-width="1.895" paint-order="markers stroke fill" ry="7.919"/><rect width="75.659" height="44.54" x="264.847" y="413.733" fill="#bec8b7" stroke="#000" stroke-dasharray="7.581 7.581" stroke-linecap="square" stroke-width="1.895" paint-order="markers stroke fill" ry="7.919"/><rect width="75.659" height="44.54" x="17.433" y="413.733" fill="#ffd5d5" stroke="#000" stroke-dasharray="7.581 7.581" stroke-linecap="square" stroke-width="1.895" paint-order="markers stroke fill" ry="7.919"/><g transform="matrix(.58437 0 0 .58437 -397.26 324.147)"><path fill="#1ca7e1" d="M770.348 161.208l-9.351 14.177 14.19 3.282a.682.682 0 0 1 .163.06l.382.046c2.464.293 5.253.225 7.655-.415 2.238-.597 4.108-1.67 5.194-3.362l.226-.38 4.706-9.056zm16.066 17.44a12.82 12.82 0 0 1-2.676 1.029c-1.317.35-2.707.535-4.094.594l5.058 1.262zM760.552 176.67v17.137l13.968 3.23.108-17.112zM794.087 167.414l-3.993 7.683-.003 15.587 3.996-7.69z"/><path fill="#f7cb20" d="M788.723 176.96c-1.314 1.332-3.073 2.207-4.985 2.717-2.381.634-4.999.726-7.408.51l-.11 17.2c4.126.778 8.63-.148 11.27-2.62.524-.528.915-.939 1.23-1.483l.004-16.325z"/><text x="-2128.023" y="1141.382" fill="#fffcfc" stroke-width="4.707" font-family="sans-serif" font-size="67.166" font-weight="400" letter-spacing="0" transform="matrix(.27112 .0526 -.13574 .21895 1498.223 36.17)" style="line-height:1.25" word-spacing="0"><tspan style="-inkscape-font-specification:'sans-serif Bold'" x="-2128.023" y="1141.382" font-weight="700">X</tspan></text><circle cx="763.419" cy="191.808" r="8.48" fill="#fff" stroke="#1ca7e1" stroke-linecap="round" stroke-linejoin="round" stroke-width=".516" opacity=".99" paint-order="markers fill stroke"/><g><path fill="maroon" d="M763.487 185.579l-6.297 1.403.445 8.077 5.75 2.978 5.749-2.944.513-8.11zm5.811 3.004l-.824 5.365-1.134.48-.656-2.879-.653 3.435-1.133.481-.833-4.662 1.098-.466.396 2.634.576-3.047 1.096-.464.579 2.556.396-2.97zm-10.358.505c.067-.004.138 0 .214.01.307.035.727.206 1.26.514.653.378 1.15.794 1.492 1.249.344.454.548.978.613 1.574l-1.489-.77a1.569 1.569 0 0 0-.25-.674 1.58 1.58 0 0 0-.524-.467c-.184-.106-.322-.145-.415-.115-.093.026-.14.099-.14.216 0 .086.04.185.116.298.074.114.25.282.53.505.69.556 1.184 1 1.482 1.334.3.333.517.656.652.972.137.317.206.622.206.915 0 .345-.09.611-.272.797-.182.187-.435.262-.76.225-.326-.039-.736-.202-1.231-.488-.87-.503-1.472-1.027-1.807-1.573-.335-.546-.524-1.104-.568-1.672l1.503.77c.032.275.099.51.199.702.162.312.395.555.697.73.226.13.399.176.52.135.123-.041.185-.135.185-.282 0-.14-.059-.298-.175-.475-.116-.177-.386-.437-.809-.78-.693-.565-1.187-1.068-1.482-1.51-.298-.444-.447-.877-.447-1.297 0-.277.076-.494.227-.651a.673.673 0 0 1 .473-.192z"/><path fill="#fff" stroke="#fff" stroke-linecap="round" stroke-linejoin="round" stroke-width=".0963765" d="M761.46 195.607c-.626-.155-1.726-.822-2.315-1.403a3.672 3.672 0 0 1-1.003-1.834c-.039-.185-.062-.345-.052-.355.01-.01.34.144.731.342l.712.362.035.213c.077.483.414.955.871 1.22.747.432 1.014-.197.368-.864-.118-.122-.491-.459-.829-.749-1.232-1.059-1.747-1.867-1.697-2.664.024-.374.133-.554.421-.697.173-.086.231-.09.506-.04 1.02.19 2.524 1.31 2.957 2.203.162.334.37 1.02.31 1.02-.012 0-.341-.16-.73-.355l-.71-.355-.035-.207c-.048-.284-.307-.649-.606-.853-.439-.3-.656-.283-.685.052-.014.167.014.215.28.48.164.162.575.528.914.813.685.576 1.1 1.021 1.373 1.475.335.557.467 1.232.324 1.66-.058.174-.26.428-.4.503-.152.08-.49.096-.74.033zm3.443-.223c0-.021-.182-1.048-.404-2.283-.222-1.235-.388-2.261-.369-2.281.036-.038.995-.448 1.01-.432.005.005.096.588.202 1.296.106.708.205 1.275.221 1.26.016-.016.155-.698.31-1.516l.281-1.487.51-.214c.28-.118.524-.2.542-.18.019.018.155.58.304 1.246.148.666.283 1.211.299 1.211.015 0 .115-.66.222-1.465.106-.806.198-1.469.203-1.474.086-.072.985-.407.998-.37.01.027-.161 1.217-.38 2.643l-.398 2.592-.539.228c-.46.195-.542.216-.569.147a46.986 46.986 0 0 1-.324-1.383c-.162-.715-.31-1.317-.329-1.338-.019-.021-.17.68-.334 1.556a105.33 105.33 0 0 1-.331 1.713c-.024.093-.145.168-.557.344-.57.244-.568.243-.568.187z" paint-order="markers fill stroke"/></g></g><text style="line-height:1.5;-inkscape-font-specification:'Bahnschrift Bold'" x="47.182" y="450.845" stroke-dasharray="17.363 17.363" stroke-linecap="square" stroke-width="3.678" font-family="Bahnschrift" font-size="6.488" font-weight="700" paint-order="markers stroke fill" transform="translate(8.113 2.714)"><tspan style="text-align:center" x="47.182" y="450.845" text-anchor="middle">SOLIDWORKS</tspan></text><g transform="matrix(.58437 0 0 .58437 -295.488 310.705)"><path fill="#1ca7e1" d="M878.542 184.211l-9.351 14.178 14.19 3.28a.682.682 0 0 1 .163.062l.382.045c2.464.293 5.253.226 7.655-.415 2.238-.596 4.108-1.67 5.194-3.361l.226-.38 4.706-9.056zm16.066 17.44a12.82 12.82 0 0 1-2.676 1.03c-1.317.35-2.707.534-4.094.593l5.058 1.263zM868.746 199.673v17.138l13.968 3.23.108-17.113zM902.281 190.418l-3.993 7.682-.003 15.588 3.996-7.69z"/><path fill="#f7cb20" d="M896.917 199.963c-1.314 1.332-3.073 2.207-4.985 2.717-2.381.635-4.999.726-7.408.51l-.11 17.2c4.126.778 8.63-.147 11.27-2.619.524-.529.915-.94 1.23-1.483l.004-16.325z"/><text x="-2128.023" y="1141.382" fill="#fffcfc" stroke-width="4.707" font-family="sans-serif" font-size="67.166" font-weight="400" letter-spacing="0" transform="matrix(.27112 .0526 -.13574 .21895 1606.417 59.174)" style="line-height:1.25" word-spacing="0"><tspan style="-inkscape-font-specification:'sans-serif Bold'" x="-2128.023" y="1141.382" font-weight="700">X</tspan></text><circle cx="871.613" cy="214.811" r="8.48" fill="#fff" stroke="#1ca7e1" stroke-linecap="round" stroke-linejoin="round" stroke-width=".516" opacity=".99" paint-order="markers fill stroke"/><g paint-order="markers fill stroke"><path fill="#715b03" d="M866.648 211.372v8.11c0 .41.317.743.72.768v.001H877.617V211.371h-10.2z"/><path fill="#dcaf03" d="M867.594 209.371v8.978h9.133v-8.314a.662.662 0 0 0-.664-.664h-7.806z"/><path fill="#ebce5d" d="M865.609 210.323l1.985-.948v8.971l-1.985.948z"/><path fill="#fffffa" d="M870.82 211.372v.886h.677v3.137h-.678v.886h2.584v-.886h-.678v-3.137h.678v-.886z"/></g></g><text style="line-height:1.5;-inkscape-font-specification:'Bahnschrift Bold'" x="221.249" y="450.845" stroke-dasharray="17.363 17.363" stroke-linecap="square" stroke-width="3.678" font-family="Bahnschrift" font-size="6.488" font-weight="700" paint-order="markers stroke fill" transform="translate(-.957 2.714)"><tspan style="text-align:center" x="221.249" y="450.845" text-anchor="middle">AUTODESK INVENTOR</tspan></text><g transform="matrix(.58437 0 0 .58437 -282.574 293.36)"><path fill="#1ca7e1" d="M714.934 209.73l-9.352 14.177 14.19 3.281a.682.682 0 0 1 .164.061l.382.046c2.464.293 5.252.225 7.654-.415 2.239-.597 4.108-1.67 5.194-3.362l.226-.38 4.707-9.056zM731 227.17a12.82 12.82 0 0 1-2.676 1.029c-1.318.35-2.707.535-4.094.594l5.057 1.262zM705.138 225.191v17.138l13.968 3.23.107-17.113zM738.673 215.936l-3.993 7.683-.003 15.587 3.996-7.69z"/><path fill="#f7cb20" d="M733.31 225.481c-1.315 1.333-3.074 2.208-4.986 2.718-2.382.634-4.999.725-7.409.51l-.108 17.2c4.125.777 8.628-.148 11.27-2.62.523-.528.914-.939 1.228-1.483l.004-16.325z"/><text x="-2128.023" y="1141.382" fill="#fffcfc" stroke-width="4.707" font-family="sans-serif" font-size="67.166" font-weight="400" letter-spacing="0" transform="matrix(.27112 .0526 -.13574 .21895 1442.809 84.692)" style="line-height:1.25" word-spacing="0"><tspan style="-inkscape-font-specification:'sans-serif Bold'" x="-2128.023" y="1141.382" font-weight="700">X</tspan></text><circle cx="708.004" cy="240.33" r="8.48" fill="#fff" stroke="#1ca7e1" stroke-linecap="round" stroke-linejoin="round" stroke-width=".516" opacity=".99" paint-order="markers fill stroke"/><g transform="translate(1692.418 371.01) scale(.32863)"><path fill="url(#j)" fill-rule="evenodd" stroke="#888a85" stroke-width=".943" d="M-2981.405-380.646h-28.164a.535.535 0 0 1-.538-.534v-25.629c0-2.335 6.49-7.832 8.743-7.832h19.96c.297 0 .537.238.537.536v32.925c0 .296-.24.534-.538.534z"/><rect width="27.354" height="32.112" x="2981.811" y="381.588" fill="none" stroke="url(#k)" stroke-width=".943" rx="0" ry="0" transform="scale(-1)"/><path fill="url(#l)" fill-rule="evenodd" stroke="#868a84" stroke-width=".943" d="M-3001.354-414.64c-1.915-.31-9.046 4.274-8.758 8.017 1.474-2.286 4.488-1.214 8.364-1.364 0 0-.372-6.18.394-6.652z" color="#000"/><path fill="none" stroke="url(#m)" stroke-width=".943" d="M-3002.722-412.572c-1.292.645-4.178 2.025-5.403 3.8 1.505-.642 2.78-.198 5.378-.18 0 0-.153-2.888.024-3.62z" color="#000" opacity=".369"/><g stroke="#696666" stroke-linecap="round" stroke-linejoin="round" stroke-width="3.776"><path fill="url(#n)" d="M1979.491-231.018l80.875-57.486v121.93l-80.875 60.808z" transform="matrix(.06299 0 0 .06299 -3115.738 -378.013)"/><path fill="#ffd100" stroke-width=".23785024" d="M-3004.634-400.375l6.021-2.364 12.656 6.553-5.094 3.621z"/><path fill="url(#o)" d="M1823.918-426.322l78.643-34.692 76.564 36.193-87.188 37.666-68.02-39.167" transform="matrix(.06299 0 0 .06299 -3115.738 -378.013)"/><path fill="url(#p)" d="M1763.85-355.004l60.068 34.588v-105.906l68.02 39.167v105.721l87.553 50.416v125.252l-217.9-150.143z" transform="matrix(.06299 0 0 .06299 -3115.738 -378.013)"/><path fill="url(#q)" d="M1891.937-387.155l87.188-37.666 3.165 99.617-90.353 43.77z" transform="matrix(.06299 0 0 .06299 -3115.738 -378.013)"/><g><path fill="url(#r)" d="M2312.65-285.516l71.91 34.642-87.188 37.666-67.677-37.11z" transform="matrix(.06299 0 0 .06299 -3136.454 -386.417)"/><path fill="url(#s)" d="M2229.546-153.256l.15-97.063 79.468 32.449-.545 111.547z" transform="matrix(.06299 0 0 .06299 -3136.454 -386.417)"/><path fill="url(#t)" d="M2309.164-217.87l75.395-33.004 3.36 88.37-79.3 56.18z" transform="matrix(.06299 0 0 .06299 -3136.454 -386.417)"/></g></g></g></g><text style="line-height:1.5;-inkscape-font-specification:'Bahnschrift Bold'" x="134.215" y="445.979" stroke-dasharray="17.363 17.363" stroke-linecap="square" stroke-width="3.678" font-family="Bahnschrift" font-size="6.488" font-weight="700" paint-order="markers stroke fill" transform="translate(3.384 .28)"><tspan style="text-align:center" x="134.215" y="445.979" text-anchor="middle">SOLIDWORKS</tspan><tspan style="text-align:center" x="134.215" y="455.711" text-anchor="middle">DOCUMENT MANAGER</tspan></text><text style="line-height:1.5;-inkscape-font-specification:'Bahnschrift Bold'" x="316.679" y="451.229" stroke-dasharray="17.363 17.363" stroke-linecap="square" stroke-width="3.678" font-family="Bahnschrift" font-size="6.488" font-weight="700" paint-order="markers stroke fill" transform="translate(-14.066 2.33)"><tspan style="text-align:center" x="316.679" y="451.229" text-anchor="middle">OTHER CAD SYSTEMS</tspan></text><g transform="translate(-5.574 9.064)"><path fill="#1ca7e1" d="M305.893 409.288l-5.465 8.285 8.292 1.917a.399.399 0 0 1 .096.036l.223.026c1.44.172 3.07.132 4.473-.242 1.308-.349 2.4-.976 3.035-1.964l.132-.223 2.75-5.291zm9.388 10.191a7.491 7.491 0 0 1-1.564.602 11.16 11.16 0 0 1-2.392.347l2.955.738zM300.168 418.323v10.015l8.163 1.888.063-10zM319.765 412.915l-2.333 4.49-.002 9.108 2.335-4.494z"/><path fill="#f7cb20" d="M316.63 418.493c-.767.778-1.795 1.29-2.913 1.588-1.391.37-2.92.424-4.329.298l-.064 10.05c2.411.455 5.043-.085 6.586-1.53.306-.309.534-.548.718-.866l.003-9.54z"/><text x="-2128.023" y="1141.382" fill="#fffcfc" stroke-width="4.707" font-family="sans-serif" font-size="67.166" font-weight="400" letter-spacing="0" transform="matrix(.15843 .03074 -.07932 .12795 731.238 336.22)" style="line-height:1.25" word-spacing="0"><tspan style="-inkscape-font-specification:'sans-serif Bold'" x="-2128.023" y="1141.382" font-weight="700">X</tspan></text><circle cx="301.843" cy="427.17" r="4.955" fill="#fff" stroke="#1ca7e1" stroke-linecap="round" stroke-linejoin="round" stroke-width=".301" opacity=".99" paint-order="markers fill stroke"/><text style="line-height:1.5;-inkscape-font-specification:'Bahnschrift Bold';text-align:center" x="301.965" y="430.743" fill="#bec8b7" stroke-dasharray="22.596 22.596" stroke-linecap="square" stroke-width="5.649" font-family="Bahnschrift" font-size="9.964" font-weight="700" paint-order="markers stroke fill" text-anchor="middle"><tspan x="301.965" y="430.743" fill="#666">?</tspan></text></g><text style="line-height:1.5;-inkscape-font-specification:'Bahnschrift Bold'" x="69.68" y="487.868" stroke-dasharray="32.279 32.279" stroke-linecap="square" stroke-width="6.838" font-family="Bahnschrift" font-size="12.062" font-weight="700" paint-order="markers stroke fill"><tspan x="69.68" y="487.868">XCAD SPECIFIC IMPLEMENTATION LAYER</tspan></text><rect width="338.163" height="90.044" x="9.619" y="509.876" fill="#e5ffd5" stroke="#000" stroke-dasharray="8 8" stroke-linecap="square" stroke-width="2" paint-order="markers stroke fill" ry="16.009"/><rect width="75.659" height="44.54" x="182.376" y="516.285" fill="#e9c6af" stroke="#000" stroke-dasharray="7.581 7.581" stroke-linecap="square" stroke-width="1.895" paint-order="markers stroke fill" ry="7.919"/><rect width="75.659" height="44.54" x="99.905" y="516.285" fill="#fea" stroke="#000" stroke-dasharray="7.581 7.581" stroke-linecap="square" stroke-width="1.895" paint-order="markers stroke fill" ry="7.919"/><rect width="75.659" height="44.54" x="264.847" y="516.285" fill="#bec8b7" stroke="#000" stroke-dasharray="7.581 7.581" stroke-linecap="square" stroke-width="1.895" paint-order="markers stroke fill" ry="7.919"/><rect width="75.659" height="44.54" x="17.433" y="516.285" fill="#ffd5d5" stroke="#000" stroke-dasharray="7.581 7.581" stroke-linecap="square" stroke-width="1.895" paint-order="markers stroke fill" ry="7.919"/><path fill="maroon" d="M55.383 520.667l-11.038 2.46.78 14.157 10.078 5.22 10.078-5.16.9-14.217zm10.185 5.265l-1.445 9.405-1.986.842-1.15-5.047-1.145 6.021-1.987.843-1.458-8.173 1.924-.816.693 4.617 1.01-5.34 1.92-.814 1.016 4.48.694-5.206zm-18.156.886c.117-.007.242 0 .376.016.538.062 1.274.363 2.207.903 1.145.662 2.017 1.392 2.616 2.189.603.795.962 1.714 1.076 2.758l-2.61-1.349c-.07-.464-.216-.858-.44-1.18a2.77 2.77 0 0 0-.917-.82c-.322-.187-.565-.254-.728-.202-.163.047-.244.173-.244.38 0 .15.067.323.202.521.13.2.44.495.929.885 1.21.974 2.076 1.754 2.597 2.339.526.583.907 1.15 1.144 1.703.24.555.36 1.09.36 1.605 0 .605-.159 1.07-.477 1.397-.318.326-.762.458-1.332.394-.57-.069-1.29-.354-2.158-.856-1.524-.881-2.58-1.8-3.166-2.757-.587-.957-.92-1.934-.997-2.931l2.635 1.35c.057.483.173.893.348 1.23a3.11 3.11 0 0 0 1.223 1.28c.395.229.699.308.91.237.217-.072.325-.237.325-.494 0-.245-.102-.522-.306-.833-.204-.311-.677-.767-1.418-1.367-1.214-.99-2.08-1.873-2.598-2.648-.522-.778-.783-1.536-.783-2.273 0-.485.133-.865.398-1.14.201-.21.478-.321.828-.337z"/><path fill="#fff" stroke="#fff" stroke-linecap="round" stroke-linejoin="round" stroke-width=".1689347" d="M51.829 538.245c-1.096-.272-3.025-1.441-4.057-2.459a6.436 6.436 0 0 1-1.758-3.215c-.068-.324-.11-.605-.091-.623.018-.018.595.252 1.281.6l1.249.634.06.374c.135.846.726 1.673 1.527 2.137 1.31.758 1.778-.344.644-1.513-.206-.214-.86-.804-1.452-1.313-2.16-1.856-3.063-3.273-2.974-4.67.041-.655.232-.97.738-1.222.303-.15.405-.158.886-.068 1.788.332 4.424 2.295 5.184 3.86.284.586.649 1.788.542 1.788-.02 0-.597-.28-1.28-.622l-1.242-.622-.062-.364c-.084-.497-.538-1.136-1.062-1.494-.77-.526-1.151-.497-1.201.091-.025.292.025.377.492.84.285.285 1.005.926 1.6 1.426 1.202 1.01 1.928 1.79 2.407 2.585.587.976.819 2.16.568 2.909-.102.307-.456.75-.703.882-.265.141-.858.168-1.296.06zm6.035-.391c0-.037-.319-1.838-.708-4.002-.388-2.164-.68-3.963-.646-3.999.063-.066 1.743-.785 1.77-.756.009.008.168 1.03.354 2.272.185 1.24.36 2.233.387 2.206.028-.027.273-1.222.544-2.655l.493-2.606.893-.377c.491-.207.919-.349.95-.315.033.033.272 1.016.533 2.184.26 1.168.496 2.123.524 2.123.027 0 .203-1.155.39-2.567.186-1.413.346-2.575.356-2.584.15-.127 1.725-.713 1.748-.65.017.049-.282 2.133-.666 4.633l-.697 4.544-.944.4c-.806.341-.952.379-.997.257-.03-.079-.286-1.169-.57-2.423-.283-1.254-.542-2.31-.575-2.346-.033-.037-.298 1.19-.587 2.727-.29 1.536-.55 2.888-.58 3.002-.042.164-.253.295-.976.604-1 .428-.995.426-.996.327z" paint-order="markers fill stroke"/><text style="line-height:1.5;-inkscape-font-specification:'Bahnschrift Bold'" x="55.294" y="556.11" stroke-dasharray="17.363 17.363" stroke-linecap="square" stroke-width="3.678" font-family="Bahnschrift" font-size="6.488" font-weight="700" paint-order="markers stroke fill"><tspan style="text-align:center" x="55.294" y="556.11" text-anchor="middle">SOLIDWORKS</tspan></text><g paint-order="markers fill stroke"><path fill="#715b03" d="M211.503 524.174v14.216c0 .718.556 1.301 1.263 1.345l-.001.003h17.964v-15.564H212.85z"/><path fill="#dcaf03" d="M213.16 520.667v15.737H229.17V521.83a1.16 1.16 0 0 0-1.163-1.163h-13.683z"/><path fill="#ebce5d" d="M209.682 522.335l3.479-1.662v15.725l-3.479 1.662z"/><path fill="#fffffa" d="M218.815 524.174v1.553h1.187v5.499h-1.187v1.553h4.528v-1.553h-1.188v-5.499h1.188v-1.553z"/></g><text style="line-height:1.5;-inkscape-font-specification:'Bahnschrift Bold'" x="220.292" y="556.11" stroke-dasharray="17.363 17.363" stroke-linecap="square" stroke-width="3.678" font-family="Bahnschrift" font-size="6.488" font-weight="700" paint-order="markers stroke fill"><tspan style="text-align:center" x="220.292" y="556.11" text-anchor="middle">AUTODESK INVENTOR</tspan></text><g transform="translate(1863.231 759.795) scale(.57603)"><path fill="url(#u)" fill-rule="evenodd" stroke="#888a85" stroke-width=".943" d="M-2981.405-380.646h-28.164a.535.535 0 0 1-.538-.534v-25.629c0-2.335 6.49-7.832 8.743-7.832h19.96c.297 0 .537.238.537.536v32.925c0 .296-.24.534-.538.534z"/><rect width="27.354" height="32.112" x="2981.811" y="381.588" fill="none" stroke="url(#v)" stroke-width=".943" rx="0" ry="0" transform="scale(-1)"/><path fill="url(#w)" fill-rule="evenodd" stroke="#868a84" stroke-width=".943" d="M-3001.354-414.64c-1.915-.31-9.046 4.274-8.758 8.017 1.474-2.286 4.488-1.214 8.364-1.364 0 0-.372-6.18.394-6.652z" color="#000"/><path fill="none" stroke="url(#x)" stroke-width=".943" d="M-3002.722-412.572c-1.292.645-4.178 2.025-5.403 3.8 1.505-.642 2.78-.198 5.378-.18 0 0-.153-2.888.024-3.62z" color="#000" opacity=".369"/><g stroke="#696666" stroke-linecap="round" stroke-linejoin="round" stroke-width="3.776"><path fill="url(#y)" d="M1979.491-231.018l80.875-57.486v121.93l-80.875 60.808z" transform="matrix(.06299 0 0 .06299 -3115.738 -378.013)"/><path fill="#ffd100" stroke-width=".23785024" d="M-3004.634-400.375l6.021-2.364 12.656 6.553-5.094 3.621z"/><path fill="url(#z)" d="M1823.918-426.322l78.643-34.692 76.564 36.193-87.188 37.666-68.02-39.167" transform="matrix(.06299 0 0 .06299 -3115.738 -378.013)"/><path fill="url(#A)" d="M1763.85-355.004l60.068 34.588v-105.906l68.02 39.167v105.721l87.553 50.416v125.252l-217.9-150.143z" transform="matrix(.06299 0 0 .06299 -3115.738 -378.013)"/><path fill="url(#B)" d="M1891.937-387.155l87.188-37.666 3.165 99.617-90.353 43.77z" transform="matrix(.06299 0 0 .06299 -3115.738 -378.013)"/><g><path fill="url(#C)" d="M2312.65-285.516l71.91 34.642-87.188 37.666-67.677-37.11z" transform="matrix(.06299 0 0 .06299 -3136.454 -386.417)"/><path fill="url(#D)" d="M2229.546-153.256l.15-97.063 79.468 32.449-.545 111.547z" transform="matrix(.06299 0 0 .06299 -3136.454 -386.417)"/><path fill="url(#E)" d="M2309.164-217.87l75.395-33.004 3.36 88.37-79.3 56.18z" transform="matrix(.06299 0 0 .06299 -3136.454 -386.417)"/></g></g></g><text style="line-height:1.5;-inkscape-font-specification:'Bahnschrift Bold'" x="137.599" y="548.811" stroke-dasharray="17.363 17.363" stroke-linecap="square" stroke-width="3.678" font-family="Bahnschrift" font-size="6.488" font-weight="700" paint-order="markers stroke fill"><tspan style="text-align:center" x="137.599" y="548.811" text-anchor="middle">SOLIDWORKS</tspan><tspan style="text-align:center" x="137.599" y="558.543" text-anchor="middle">DOCUMENT MANAGER</tspan></text><text style="line-height:1.5;-inkscape-font-specification:'Bahnschrift Bold'" x="302.613" y="556.11" stroke-dasharray="17.363 17.363" stroke-linecap="square" stroke-width="3.678" font-family="Bahnschrift" font-size="6.488" font-weight="700" paint-order="markers stroke fill"><tspan style="text-align:center" x="302.613" y="556.11" text-anchor="middle">OTHER CAD SYSTEMS</tspan></text><text style="line-height:1.5;-inkscape-font-specification:'Bahnschrift Bold';text-align:center" x="303.041" y="542.105" fill="#bec8b7" stroke-dasharray="67.778 67.778" stroke-linecap="square" stroke-width="16.944" font-family="Bahnschrift" font-size="29.888" font-weight="700" paint-order="markers stroke fill" text-anchor="middle"><tspan x="303.041" y="542.105" fill="#666">?</tspan></text><text style="line-height:1.5;-inkscape-font-specification:'Bahnschrift Bold'" x="127.453" y="590.42" stroke-dasharray="32.279 32.279" stroke-linecap="square" stroke-width="6.838" font-family="Bahnschrift" font-size="12.062" font-weight="700" paint-order="markers stroke fill"><tspan x="127.453" y="590.42">NATIVE APIs LAYER</tspan></text></g></svg>